<svg width="24" height="24" viewBox="0 0 24 24" fill="none" xmlns="http://www.w3.org/2000/svg">
<path d="M18.0919 5.36396C18.4824 5.75449 18.4824 6.38765 18.0919 6.77818L13.1428 11.7272L18.0919 16.6777C18.4824 17.0682 18.4824 17.7014 18.0919 18.0919C17.7014 18.4824 17.0682 18.4824 16.6777 18.0919L11.7286 13.1414L6.77818 18.0919C6.38765 18.4824 5.75449 18.4824 5.36396 18.0919C4.97344 17.7014 4.97344 17.0682 5.36396 16.6777L10.3144 11.7272L5.36397 6.77817C4.97344 6.38764 4.97344 5.75448 5.36397 5.36396C5.75449 4.97343 6.38765 4.97343 6.77818 5.36396L11.7286 10.313L16.6777 5.36396C17.0682 4.97344 17.7014 4.97344 18.0919 5.36396Z" fill="#344054"/>
</svg>