<svg width="17" height="17" viewBox="0 0 17 17" fill="none" xmlns="http://www.w3.org/2000/svg">
<path d="M12.728 4.24231C13.1186 4.63284 13.1186 5.266 12.728 5.65653L9.89924 8.48457L12.7275 11.3133C13.118 11.7038 13.118 12.337 12.7275 12.7275C12.337 13.118 11.7038 13.118 11.3133 12.7275L8.48503 9.89879L5.65653 12.728C5.266 13.1186 4.63284 13.1186 4.24231 12.728C3.85179 12.3375 3.85179 11.7044 4.24231 11.3138L7.07081 8.48457L4.24287 5.65707C3.85235 5.26655 3.85235 4.63339 4.24287 4.24286C4.6334 3.85234 5.26656 3.85234 5.65709 4.24286L8.48503 7.07036L11.3138 4.24231C11.7044 3.85179 12.3375 3.85179 12.728 4.24231Z" fill="#344054"/>
</svg>
