<svg width="24" height="24" viewBox="0 0 24 24" fill="none" xmlns="http://www.w3.org/2000/svg">
<path d="M16.7729 8.28772L8.28765 16.773C7.99773 17.0629 7.5169 17.0629 7.22699 16.773C6.93707 16.4831 6.93707 16.0023 7.22699 15.7123L15.7123 7.22706C16.0022 6.93715 16.483 6.93715 16.7729 7.22706C17.0628 7.51698 17.0628 7.99781 16.7729 8.28772Z" fill="#101828"/>
<path d="M16.7729 16.7729C16.483 17.0628 16.0022 17.0628 15.7123 16.7729L7.22699 8.28765C6.93707 7.99774 6.93707 7.51691 7.22699 7.22699C7.5169 6.93708 7.99773 6.93708 8.28765 7.22699L16.7729 15.7123C17.0628 16.0022 17.0628 16.483 16.7729 16.7729Z" fill="#101828"/>
</svg>
